<?xml version="1.0" encoding="utf-8"?>
<!-- Generator: Adobe Illustrator 23.0.6, SVG Export Plug-In . SVG Version: 6.00 Build 0)  -->
<svg version="1.1" id="Layer_1" xmlns="http://www.w3.org/2000/svg" xmlns:xlink="http://www.w3.org/1999/xlink" x="0px" y="0px"
	 viewBox="0 0 200 200" style="enable-background:new 0 0 200 200;" xml:space="preserve">
<style type="text/css">
	.icon-bg{fill:#995085;}
	.icon-accent{fill:#FFC107;}
	.icon-dark{fill:#21111B;}
	.icon-light{fill:#FFFFFF;}
</style>
<rect class="icon-bg" width="123.3" height="200"/>
<rect x="146.8" class="icon-bg" width="53.2" height="200"/>
<path class="icon-accent" d="M156.9,174.7c-4.7,0-9.2-1.8-12.5-5.2L70,95c-3,0.8-6.1,1.2-9.3,1.2c0,0,0,0,0,0c-9.4,0-18.3-3.7-24.9-10.3
	c-8.8-8.8-12.3-21.7-9.4-33.7c0.7-2.7,3.1-4.7,6-4.7c1.6,0,3.2,0.6,4.4,1.8L52,64.6l10.8-1.8L64.6,52L49.4,36.7
	c-1.6-1.6-2.2-3.9-1.6-6c0.6-2.1,2.3-3.8,4.5-4.3c2.8-0.7,5.7-1,8.6-1c9.5,0,18.4,3.7,25.1,10.4c8.9,8.9,12.3,21.9,9,34.2l74.5,74.5
	c6.9,6.9,6.9,18.2,0,25.1C166.1,172.8,161.7,174.7,156.9,174.7z M156.9,155.1c-1,0-1.8,0.8-1.8,1.8s0.8,1.8,1.8,1.8s1.8-0.8,1.8-1.8
	S158,155.1,156.9,155.1z"/>
<path class="icon-dark" d="M60.8,28.8c8.2,0,16.4,3.1,22.6,9.4C92.3,47,94.7,59.8,91,70.9l76,76c5.6,5.6,5.6,14.6,0,20.1
	c-2.8,2.8-6.4,4.2-10.1,4.2s-7.3-1.4-10.1-4.2L71,91.1c-3.3,1.1-6.8,1.7-10.3,1.7c-8.1,0-16.3-3.1-22.5-9.3
	c-8.2-8.2-11-19.9-8.4-30.4c0.3-1.3,1.4-2,2.6-2c0.7,0,1.3,0.2,1.9,0.8l16.5,16.5l15.1-2.5l2.5-15.1L51.9,34.2
	c-1.5-1.5-0.8-4,1.3-4.5C55.6,29.1,58.2,28.8,60.8,28.8 M156.9,162.3c2.9,0,5.3-2.4,5.3-5.3c0-2.9-2.4-5.3-5.3-5.3
	c-2.9,0-5.3,2.4-5.3,5.3C151.6,159.9,154,162.3,156.9,162.3 M60.8,21.8C60.8,21.8,60.8,21.8,60.8,21.8c-3.2,0-6.3,0.4-9.4,1.1
	c-3.4,0.8-6.1,3.5-7,6.8c-0.9,3.4,0,7,2.5,9.4l14,14l-1.1,6.6l-6.6,1.1l-14-14c-1.8-1.8-4.3-2.8-6.8-2.8c-4.5,0-8.3,3-9.4,7.3
	c-3.3,13.2,0.6,27.4,10.3,37c7.3,7.3,17,11.3,27.4,11.3c2.8,0,5.5-0.3,8.2-0.9l73.1,73.1c4,4,9.3,6.2,15,6.2c5.7,0,11-2.2,15-6.2
	c8.3-8.3,8.3-21.7,0-30L98.9,68.8c2.7-12.9-1.1-26.2-10.4-35.6C81.1,25.9,71.3,21.8,60.8,21.8L60.8,21.8L60.8,21.8z"/>
<path class="icon-light" d="M49.7,174.6c-3.2,0-6.3-1.3-8.6-3.6l-12.2-12.2c-4.7-4.7-4.7-12.4,0-17.2l27.1-27.1c3.9-3.9,9.1-6.1,14.7-6.1
	c2.4,0,4.7,0.4,6.8,1.1l45.5-45.5V49.4l33.5-25.1l19.1,19.1l-25.1,33.5h-14.7l-45.6,45.6c2.5,7.3,0.9,15.7-4.9,21.5l-27.1,27.1
	C56,173.4,53,174.6,49.7,174.6z"/>
<path class="icon-dark" d="M156.3,28.9l14.8,14.8l-22.3,29.7h-14.4L90.8,117c-1-1.6-2.1-3.1-3.4-4.4c-1.3-1.3-2.8-2.5-4.4-3.4l43.7-43.7
	V51.1L156.3,28.9 M70.8,112c4.4,0,8.8,1.7,12.2,5.1c6.7,6.7,6.7,17.7,0,24.4l-27.1,27.1c-1.7,1.7-3.9,2.5-6.1,2.5s-4.4-0.8-6.1-2.5
	l-12.2-12.2c-3.4-3.4-3.4-8.8,0-12.2L58.5,117C61.9,113.6,66.3,112,70.8,112 M156.9,19.6l-4.9,3.6l-29.7,22.3l-2.8,2.1v3.5v11.5
	L78,104.2l-1.4,1.4c-1.9-0.5-3.8-0.7-5.8-0.7c-6.5,0-12.6,2.5-17.2,7.1l-27.1,27.1c-6.1,6.1-6.1,16,0,22.1l12.2,12.2
	c3,3,6.9,4.6,11.1,4.6c4.2,0,8.1-1.6,11.1-4.6l27.1-27.1c4.6-4.6,7.1-10.7,7.1-17.2c0-2-0.2-3.9-0.7-5.8l1.4-1.4l41.6-41.6h11.5h3.5
	l2.1-2.8l22.3-29.7l3.6-4.9l-4.3-4.3l-14.8-14.8L156.9,19.6L156.9,19.6z"/>
</svg>
